<?xml version="1.0" encoding="UTF-8" standalone="no"?>
<svg
   id="emoji"
   viewBox="0 0 72 72"
   version="1.1"
   sodipodi:docname="escape.svg"
   inkscape:version="1.2.2 (1:1.2.2+202305151915+b0a8486541)"
   xmlns:inkscape="http://www.inkscape.org/namespaces/inkscape"
   xmlns:sodipodi="http://sodipodi.sourceforge.net/DTD/sodipodi-0.dtd"
   xmlns="http://www.w3.org/2000/svg"
   xmlns:svg="http://www.w3.org/2000/svg">
  <defs
     id="defs32" />
  <sodipodi:namedview
     id="namedview30"
     pagecolor="#ffffff"
     bordercolor="#666666"
     borderopacity="1.0"
     inkscape:showpageshadow="2"
     inkscape:pageopacity="0.0"
     inkscape:pagecheckerboard="0"
     inkscape:deskcolor="#d1d1d1"
     showgrid="false"
     inkscape:zoom="11.805556"
     inkscape:cx="36.169412"
     inkscape:cy="38.752941"
     inkscape:window-width="1920"
     inkscape:window-height="1016"
     inkscape:window-x="0"
     inkscape:window-y="27"
     inkscape:window-maximized="1"
     inkscape:current-layer="emoji" />
  <g
     id="color"
     transform="translate(0,10.886708)">
    <polyline
       fill="#fcea2b"
       stroke="#fcea2b"
       stroke-linecap="round"
       stroke-linejoin="round"
       stroke-miterlimit="10"
       stroke-width="2"
       points="27,35 12.5,60 41.5,60 27,35"
       id="polyline2" />
    <polyline
       fill="#f1b31c"
       stroke="#f1b31c"
       stroke-linecap="round"
       stroke-linejoin="round"
       stroke-miterlimit="10"
       stroke-width="2"
       points="27,35 27,60 12.5,60 27,35"
       id="polyline4" />
    <path
       fill="#b1cc33"
       d="m 66.5,32.6158 c 0,-3.5438 -3.6409,-6.422 -8.1319,-6.422 -0.3752,0.0031 -0.75,0.0268 -1.1227,0.0708 C 55.3433,22.5678 51.2137,20 46.4116,20 39.8079,20 34.455,24.845 34.455,30.8212 c 0.0012,0.395 0.026,0.7896 0.0743,1.1815 -2.9518,0.9632 -5.0293,3.2567 -5.0293,5.9351 0,3.5437 3.6409,6.422 8.1319,6.422 1.7071,0.0148 3.3882,-0.4304 4.8765,-1.2914 1.9213,1.5798 4.9956,2.6089 8.472,2.6089 5.8244,0 10.546,-2.8754 10.546,-6.4219 C 61.5254,39.0209 61.5038,38.787 61.4617,38.5565 64.4176,37.5919 66.5,35.297 66.5,32.6158 Z"
       id="path6" />
    <path
       fill="#8967aa"
       d="m 27,54 c -1,0 -3,1 -5,1 -2.7614,0 -5,2.2386 -5,5 h 10 z"
       id="path8" />
  </g>
  <g
     id="hair" />
  <g
     id="skin" />
  <g
     id="skin-shadow" />
  <polyline
     fill="none"
     stroke="#000000"
     stroke-linecap="round"
     stroke-linejoin="round"
     stroke-width="2"
     points="46.9399,60 46.9399,52.3255 41.6551,47.1613"
     id="polyline14"
     transform="translate(0,10.886708)" />
  <line
     x1="47.5116"
     x2="50.517799"
     y1="63.104809"
     y2="59.937206"
     fill="none"
     stroke="#000000"
     stroke-linecap="round"
     stroke-linejoin="round"
     stroke-width="2"
     id="line16" />
  <polyline
     fill="none"
     stroke="#000000"
     stroke-linecap="round"
     stroke-linejoin="round"
     stroke-miterlimit="10"
     stroke-width="2"
     points="27,35 12.5,60 41.5,60 34.5657,48.0444"
     id="polyline18"
     style="stroke-width:2;stroke-dasharray:none"
     transform="translate(0,10.886708)" />
  <line
     x1="27"
     x2="27"
     y1="70.886711"
     y2="55.136707"
     fill="none"
     stroke="#000000"
     stroke-linecap="round"
     stroke-linejoin="round"
     stroke-miterlimit="10"
     stroke-width="2"
     id="line20" />
  <line
     x1="27"
     x2="27"
     y1="55.136707"
     y2="70.886711"
     fill="none"
     stroke="#000000"
     stroke-linecap="round"
     stroke-linejoin="round"
     stroke-miterlimit="10"
     stroke-width="2"
     id="line22" />
  <path
     fill="none"
     stroke="#000000"
     stroke-linecap="round"
     stroke-miterlimit="10"
     stroke-width="2"
     d="m 66.5,43.502508 c 0,-3.5438 -3.6409,-6.422 -8.1319,-6.422 -0.3752,0.0031 -0.75,0.0268 -1.1227,0.0708 -1.9021,-3.6968 -6.0317,-6.2646 -10.8338,-6.2646 -6.6037,0 -11.9566,4.845 -11.9566,10.8212 0.0012,0.395 0.026,0.7896 0.0743,1.1815 -2.9518,0.9632 -5.0293,3.2567 -5.0293,5.9351 0,3.5437 3.6409,6.422 8.1319,6.422 1.7071,0.0148 3.3882,-0.4304 4.8765,-1.2914 1.9213,1.5798 4.9956,2.6089 8.472,2.6089 5.8244,0 10.546,-2.8754 10.546,-6.4219 -0.001,-0.2345 -0.0226,-0.4684 -0.0647,-0.6989 2.9559,-0.9646 5.0383,-3.2595 5.0383,-5.9407 z"
     id="path24" />
  <path
     fill="none"
     stroke="#000000"
     stroke-linecap="round"
     stroke-linejoin="round"
     stroke-miterlimit="10"
     stroke-width="2"
     d="m 27,64.886708 c -1,0 -3,1 -5,1 -2.7614,0 -5,2.2386 -5,5 h 10 z"
     id="path26" />
  <g
     id="color-3"
     transform="matrix(0.43485388,0,0,0.43485388,-11.033827,32.921476)" />
  <circle
     cx="0.77091312"
     cy="49.863239"
     r="1.3045616"
     fill="#fcea2b"
     id="circle262"
     style="stroke-width:0.434854" />
  <path
     fill="#fcea2b"
     d="m 0.63880471,53.990527 c 0,0 0.13210861,1.612438 1.43667029,3.931949 0.1061478,0.188944 0.4484213,0.74273 0.4484213,0.74273 l -2.6091233,5.072571 -0.10871347,7.827369 H 1.2949122 L 2.0890424,65.042338 4.6981657,62.433215 7.307289,60.258946 V 58.51953 L 4.6981657,53.736137"
     id="path264"
     style="stroke-width:0.434854" />
  <polyline
     fill="#fcea2b"
     points="42 36 49 46 59.167 52 58.167 55 46 50 37 42"
     id="polyline266"
     transform="matrix(0.43485388,0,0,0.43485388,-10.956574,44.169352)" />
  <path
     fill="#fcea2b"
     d="M 4.6981657,53.736137 C 3.8284579,51.996722 2.8024637,51.895444 2.075475,52.178056 a 1.7862928,1.7862928 0 0 0 -0.8561404,2.427789"
     id="path268"
     style="stroke-width:0.434854" />
  <circle
     cx="0.77091312"
     cy="49.863239"
     r="1.3045616"
     fill="none"
     stroke="#000000"
     stroke-miterlimit="10"
     stroke-width="0.869708"
     id="circle271" />
  <path
     fill="none"
     stroke="#000000"
     stroke-linecap="round"
     stroke-linejoin="round"
     stroke-width="0.869708"
     d="m 7.307289,59.824092 2.5454171,3.635943 a 4.7942205,4.7942205 0 0 0 1.2476829,1.154668 l 2.922914,1.724978 a 1.0276902,1.0276902 0 0 1 0.531696,1.094354 0.73490306,0.73490306 0 0 1 -1.021907,0.321791 L 9.8511842,66.242535 A 6.1333096,6.1333096 0 0 1 8.3967284,65.334169 L 5.1330196,62.433215"
     id="path273" />
  <path
     fill="none"
     stroke="#000000"
     stroke-linecap="round"
     stroke-linejoin="round"
     stroke-width="0.869708"
     d="m 2.457668,57.806109 c 0,0 0.113062,0.258173 0.2505194,0.574007 A 1.6226138,1.6226138 0 0 1 2.4916301,59.688069 L 0.38189304,63.00383 a 3.6194193,3.6194193 0 0 0 -0.47899155,1.603654 l -0.08497045,6.087955 a 0.80387088,0.80387088 0 0 0 0.73255485,0.869707 0.94585067,0.94585067 0 0 0 0.84974801,-0.863358 l 0.5834869,-4.796091 a 2.952223,2.952223 0 0 1 0.7202485,-1.478286 l 1.3792695,-1.379269 c 0.3380554,-0.338056 0.9155849,-0.865359 1.282819,-1.17167 L 6.6393099,60.815559 A 2.1149988,2.1149988 0 0 0 7.307289,59.389238 v 0 A 4.0478373,4.0478373 0 0 0 6.8906989,57.75597 L 4.6981657,53.736137"
     id="path275" />
  <path
     fill="none"
     stroke="#000000"
     stroke-linecap="round"
     stroke-linejoin="round"
     stroke-width="0.869708"
     d="M 4.6981657,53.736137 C 3.8284579,51.996722 2.8024637,51.895444 2.075475,52.178056 a 1.6781011,1.6781011 0 0 0 -1.0300819,1.66723"
     id="path277" />
  <path
     fill="none"
     stroke="#000000"
     stroke-linecap="round"
     stroke-linejoin="round"
     stroke-width="0.869708"
     d="M 2.4967179,53.736137 1.8797037,55.943934 A 1.2070674,1.2070674 0 0 1 0.78448076,56.780115 H -2.2594964"
     id="path279" />
</svg>
